<mxfile host="app.diagrams.net" modified="2023-11-10T06:50:24.581Z" agent="Mozilla/5.0 (Macintosh; Intel Mac OS X 10_15_7) AppleWebKit/537.36 (KHTML, like Gecko) Chrome/119.0.0.0 Safari/537.36" etag="mH91rqD3dPn3mTyo9xVP" version="22.1.0" type="device">
  <diagram id="6a731a19-8d31-9384-78a2-239565b7b9f0" name="Page-1">
    <mxGraphModel dx="1778" dy="1168" grid="1" gridSize="10" guides="1" tooltips="1" connect="1" arrows="1" fold="1" page="1" pageScale="1" pageWidth="1654" pageHeight="1169" background="none" math="0" shadow="0">
      <root>
        <mxCell id="0" />
        <mxCell id="1" parent="0" />
        <mxCell id="W3tod4uunTG3rIAU2jUC-57" value="Study Abroad?" style="rhombus;whiteSpace=wrap;html=1;" parent="1" vertex="1">
          <mxGeometry x="80" y="160" width="120" height="120" as="geometry" />
        </mxCell>
        <mxCell id="W3tod4uunTG3rIAU2jUC-58" value="" style="endArrow=classic;html=1;rounded=0;exitX=0.5;exitY=1;exitDx=0;exitDy=0;" parent="1" source="W3tod4uunTG3rIAU2jUC-55" target="W3tod4uunTG3rIAU2jUC-57" edge="1">
          <mxGeometry width="50" height="50" relative="1" as="geometry">
            <mxPoint x="500" y="370" as="sourcePoint" />
            <mxPoint x="550" y="320" as="targetPoint" />
          </mxGeometry>
        </mxCell>
        <mxCell id="W3tod4uunTG3rIAU2jUC-60" value="Yes" style="endArrow=classic;html=1;rounded=0;exitX=1;exitY=0.5;exitDx=0;exitDy=0;entryX=0;entryY=0.5;entryDx=0;entryDy=0;" parent="1" source="W3tod4uunTG3rIAU2jUC-57" target="W3tod4uunTG3rIAU2jUC-59" edge="1">
          <mxGeometry width="50" height="50" relative="1" as="geometry">
            <mxPoint x="500" y="370" as="sourcePoint" />
            <mxPoint x="550" y="320" as="targetPoint" />
          </mxGeometry>
        </mxCell>
        <mxCell id="W3tod4uunTG3rIAU2jUC-61" value="" style="endArrow=classic;html=1;rounded=0;exitX=0;exitY=0.5;exitDx=0;exitDy=0;entryX=0;entryY=0.5;entryDx=0;entryDy=0;" parent="1" source="W3tod4uunTG3rIAU2jUC-57" target="W3tod4uunTG3rIAU2jUC-56" edge="1">
          <mxGeometry width="50" height="50" relative="1" as="geometry">
            <mxPoint x="550" y="380" as="sourcePoint" />
            <mxPoint x="600" y="330" as="targetPoint" />
            <Array as="points">
              <mxPoint x="40" y="220" />
              <mxPoint x="40" y="1120" />
            </Array>
          </mxGeometry>
        </mxCell>
        <mxCell id="DvSL-Q5EqcX3udWkkIbq-46" value="No" style="edgeLabel;html=1;align=center;verticalAlign=middle;resizable=0;points=[];" vertex="1" connectable="0" parent="W3tod4uunTG3rIAU2jUC-61">
          <mxGeometry x="-0.9587" y="-2" relative="1" as="geometry">
            <mxPoint x="9" y="2" as="offset" />
          </mxGeometry>
        </mxCell>
        <mxCell id="W3tod4uunTG3rIAU2jUC-88" value="" style="endArrow=classic;html=1;rounded=0;exitX=1;exitY=0.5;exitDx=0;exitDy=0;" parent="1" source="W3tod4uunTG3rIAU2jUC-84" target="W3tod4uunTG3rIAU2jUC-87" edge="1">
          <mxGeometry width="50" height="50" relative="1" as="geometry">
            <mxPoint x="970" y="730" as="sourcePoint" />
            <mxPoint x="1020" y="680" as="targetPoint" />
          </mxGeometry>
        </mxCell>
        <mxCell id="DvSL-Q5EqcX3udWkkIbq-9" value="Applicant" style="swimlane;whiteSpace=wrap;html=1;" vertex="1" parent="1">
          <mxGeometry x="20" y="40" width="680" height="1120" as="geometry" />
        </mxCell>
        <mxCell id="DvSL-Q5EqcX3udWkkIbq-17" value="Research on other countries" style="rounded=0;whiteSpace=wrap;html=1;" vertex="1" parent="DvSL-Q5EqcX3udWkkIbq-9">
          <mxGeometry x="250" y="290" width="150" height="80" as="geometry" />
        </mxCell>
        <mxCell id="W3tod4uunTG3rIAU2jUC-59" value="Study in Canada?" style="rhombus;whiteSpace=wrap;html=1;" parent="DvSL-Q5EqcX3udWkkIbq-9" vertex="1">
          <mxGeometry x="265" y="120" width="120" height="120" as="geometry" />
        </mxCell>
        <mxCell id="DvSL-Q5EqcX3udWkkIbq-19" value="" style="endArrow=classic;html=1;rounded=0;exitX=0.5;exitY=1;exitDx=0;exitDy=0;entryX=0.5;entryY=0;entryDx=0;entryDy=0;" edge="1" parent="DvSL-Q5EqcX3udWkkIbq-9" source="W3tod4uunTG3rIAU2jUC-59" target="DvSL-Q5EqcX3udWkkIbq-17">
          <mxGeometry width="50" height="50" relative="1" as="geometry">
            <mxPoint x="335" y="590" as="sourcePoint" />
            <mxPoint x="385" y="540" as="targetPoint" />
          </mxGeometry>
        </mxCell>
        <mxCell id="DvSL-Q5EqcX3udWkkIbq-20" value="No" style="edgeLabel;html=1;align=center;verticalAlign=middle;resizable=0;points=[];" vertex="1" connectable="0" parent="DvSL-Q5EqcX3udWkkIbq-19">
          <mxGeometry x="-0.1548" y="1" relative="1" as="geometry">
            <mxPoint as="offset" />
          </mxGeometry>
        </mxCell>
        <mxCell id="W3tod4uunTG3rIAU2jUC-65" value="Choose a Canadian Colleges" style="rounded=0;whiteSpace=wrap;html=1;" parent="DvSL-Q5EqcX3udWkkIbq-9" vertex="1">
          <mxGeometry x="457" y="140" width="150" height="80" as="geometry" />
        </mxCell>
        <mxCell id="W3tod4uunTG3rIAU2jUC-66" value="" style="endArrow=classic;html=1;rounded=0;exitX=1;exitY=0.5;exitDx=0;exitDy=0;entryX=0;entryY=0.5;entryDx=0;entryDy=0;" parent="DvSL-Q5EqcX3udWkkIbq-9" source="W3tod4uunTG3rIAU2jUC-59" target="W3tod4uunTG3rIAU2jUC-65" edge="1">
          <mxGeometry width="50" height="50" relative="1" as="geometry">
            <mxPoint x="440" y="360" as="sourcePoint" />
            <mxPoint x="490" y="310" as="targetPoint" />
          </mxGeometry>
        </mxCell>
        <mxCell id="W3tod4uunTG3rIAU2jUC-67" value="Yes" style="edgeLabel;html=1;align=center;verticalAlign=middle;resizable=0;points=[];" parent="W3tod4uunTG3rIAU2jUC-66" vertex="1" connectable="0">
          <mxGeometry x="-0.1995" y="-4" relative="1" as="geometry">
            <mxPoint x="4" y="-4" as="offset" />
          </mxGeometry>
        </mxCell>
        <mxCell id="DvSL-Q5EqcX3udWkkIbq-21" value="" style="endArrow=classic;html=1;rounded=0;exitX=0.5;exitY=1;exitDx=0;exitDy=0;entryX=0.5;entryY=0;entryDx=0;entryDy=0;" edge="1" parent="DvSL-Q5EqcX3udWkkIbq-9" source="W3tod4uunTG3rIAU2jUC-65" target="W3tod4uunTG3rIAU2jUC-74">
          <mxGeometry width="50" height="50" relative="1" as="geometry">
            <mxPoint x="562" y="390" as="sourcePoint" />
            <mxPoint x="532.0000000000005" y="280" as="targetPoint" />
          </mxGeometry>
        </mxCell>
        <mxCell id="W3tod4uunTG3rIAU2jUC-74" value="Choose a specific program" style="rounded=0;whiteSpace=wrap;html=1;" parent="DvSL-Q5EqcX3udWkkIbq-9" vertex="1">
          <mxGeometry x="457" y="290" width="150" height="80" as="geometry" />
        </mxCell>
        <mxCell id="W3tod4uunTG3rIAU2jUC-75" value="Submit an application for admission" style="rounded=0;whiteSpace=wrap;html=1;" parent="DvSL-Q5EqcX3udWkkIbq-9" vertex="1">
          <mxGeometry x="457" y="414" width="150" height="80" as="geometry" />
        </mxCell>
        <mxCell id="W3tod4uunTG3rIAU2jUC-76" value="" style="endArrow=classic;html=1;rounded=0;exitX=0.5;exitY=1;exitDx=0;exitDy=0;entryX=0.5;entryY=0;entryDx=0;entryDy=0;" parent="DvSL-Q5EqcX3udWkkIbq-9" source="W3tod4uunTG3rIAU2jUC-74" target="W3tod4uunTG3rIAU2jUC-75" edge="1">
          <mxGeometry width="50" height="50" relative="1" as="geometry">
            <mxPoint x="511.5" y="406" as="sourcePoint" />
            <mxPoint x="561.5" y="356" as="targetPoint" />
          </mxGeometry>
        </mxCell>
        <mxCell id="W3tod4uunTG3rIAU2jUC-82" value="Collect necessary documents for the visa application" style="rounded=0;whiteSpace=wrap;html=1;" parent="DvSL-Q5EqcX3udWkkIbq-9" vertex="1">
          <mxGeometry x="457" y="554" width="150" height="80" as="geometry" />
        </mxCell>
        <mxCell id="W3tod4uunTG3rIAU2jUC-84" value="Apply for Study Visa" style="rounded=0;whiteSpace=wrap;html=1;" parent="DvSL-Q5EqcX3udWkkIbq-9" vertex="1">
          <mxGeometry x="457" y="674" width="150" height="80" as="geometry" />
        </mxCell>
        <mxCell id="W3tod4uunTG3rIAU2jUC-91" value="Book Flight and Accommodations" style="rounded=0;whiteSpace=wrap;html=1;" parent="DvSL-Q5EqcX3udWkkIbq-9" vertex="1">
          <mxGeometry x="457" y="819" width="150" height="80" as="geometry" />
        </mxCell>
        <mxCell id="W3tod4uunTG3rIAU2jUC-93" value="Arrival in Canada" style="rounded=0;whiteSpace=wrap;html=1;" parent="DvSL-Q5EqcX3udWkkIbq-9" vertex="1">
          <mxGeometry x="457" y="930" width="150" height="80" as="geometry" />
        </mxCell>
        <mxCell id="W3tod4uunTG3rIAU2jUC-56" value="End" style="ellipse;whiteSpace=wrap;html=1;" parent="DvSL-Q5EqcX3udWkkIbq-9" vertex="1">
          <mxGeometry x="482" y="1050" width="100" height="60" as="geometry" />
        </mxCell>
        <mxCell id="DvSL-Q5EqcX3udWkkIbq-36" value="" style="endArrow=classic;html=1;rounded=0;exitX=0.5;exitY=1;exitDx=0;exitDy=0;entryX=0.5;entryY=0;entryDx=0;entryDy=0;" edge="1" parent="DvSL-Q5EqcX3udWkkIbq-9" source="W3tod4uunTG3rIAU2jUC-82" target="W3tod4uunTG3rIAU2jUC-84">
          <mxGeometry width="50" height="50" relative="1" as="geometry">
            <mxPoint x="710" y="710" as="sourcePoint" />
            <mxPoint x="760" y="660" as="targetPoint" />
          </mxGeometry>
        </mxCell>
        <mxCell id="DvSL-Q5EqcX3udWkkIbq-50" value="" style="endArrow=classic;html=1;rounded=0;exitX=0.5;exitY=1;exitDx=0;exitDy=0;entryX=0.5;entryY=0;entryDx=0;entryDy=0;" edge="1" parent="DvSL-Q5EqcX3udWkkIbq-9" source="W3tod4uunTG3rIAU2jUC-91" target="W3tod4uunTG3rIAU2jUC-93">
          <mxGeometry width="50" height="50" relative="1" as="geometry">
            <mxPoint x="980" y="620" as="sourcePoint" />
            <mxPoint x="1030" y="570" as="targetPoint" />
          </mxGeometry>
        </mxCell>
        <mxCell id="DvSL-Q5EqcX3udWkkIbq-52" value="" style="endArrow=classic;html=1;rounded=0;exitX=0.5;exitY=1;exitDx=0;exitDy=0;entryX=0.5;entryY=0;entryDx=0;entryDy=0;" edge="1" parent="DvSL-Q5EqcX3udWkkIbq-9" source="W3tod4uunTG3rIAU2jUC-93" target="W3tod4uunTG3rIAU2jUC-56">
          <mxGeometry width="50" height="50" relative="1" as="geometry">
            <mxPoint x="770" y="640" as="sourcePoint" />
            <mxPoint x="820" y="590" as="targetPoint" />
          </mxGeometry>
        </mxCell>
        <mxCell id="W3tod4uunTG3rIAU2jUC-55" value="Start" style="ellipse;whiteSpace=wrap;html=1;" parent="DvSL-Q5EqcX3udWkkIbq-9" vertex="1">
          <mxGeometry x="70" y="30" width="100" height="60" as="geometry" />
        </mxCell>
        <mxCell id="DvSL-Q5EqcX3udWkkIbq-15" value="Institution" style="swimlane;whiteSpace=wrap;html=1;" vertex="1" parent="1">
          <mxGeometry x="700" y="40" width="580" height="1120" as="geometry" />
        </mxCell>
        <mxCell id="W3tod4uunTG3rIAU2jUC-80" value="Letter of Acceptance" style="shape=document;whiteSpace=wrap;html=1;boundedLbl=1;" parent="DvSL-Q5EqcX3udWkkIbq-15" vertex="1">
          <mxGeometry x="420" y="419" width="130" height="70" as="geometry" />
        </mxCell>
        <mxCell id="W3tod4uunTG3rIAU2jUC-77" value="Wait the Letter of Acceptance" style="shape=delay;whiteSpace=wrap;html=1;" parent="DvSL-Q5EqcX3udWkkIbq-15" vertex="1">
          <mxGeometry x="50" y="419" width="135" height="70" as="geometry" />
        </mxCell>
        <mxCell id="DvSL-Q5EqcX3udWkkIbq-29" value="Accept into program?" style="rhombus;whiteSpace=wrap;html=1;" vertex="1" parent="DvSL-Q5EqcX3udWkkIbq-15">
          <mxGeometry x="240" y="394" width="120" height="120" as="geometry" />
        </mxCell>
        <mxCell id="DvSL-Q5EqcX3udWkkIbq-31" value="" style="endArrow=classic;html=1;rounded=0;exitX=1;exitY=0.5;exitDx=0;exitDy=0;entryX=0;entryY=0.5;entryDx=0;entryDy=0;" edge="1" parent="DvSL-Q5EqcX3udWkkIbq-15" source="W3tod4uunTG3rIAU2jUC-77" target="DvSL-Q5EqcX3udWkkIbq-29">
          <mxGeometry width="50" height="50" relative="1" as="geometry">
            <mxPoint x="30" y="710" as="sourcePoint" />
            <mxPoint x="80" y="660" as="targetPoint" />
          </mxGeometry>
        </mxCell>
        <mxCell id="DvSL-Q5EqcX3udWkkIbq-41" value="Yes" style="endArrow=classic;html=1;rounded=0;exitX=1;exitY=0.5;exitDx=0;exitDy=0;entryX=0;entryY=0.5;entryDx=0;entryDy=0;" edge="1" parent="DvSL-Q5EqcX3udWkkIbq-15" source="DvSL-Q5EqcX3udWkkIbq-29" target="W3tod4uunTG3rIAU2jUC-80">
          <mxGeometry width="50" height="50" relative="1" as="geometry">
            <mxPoint x="320" y="630" as="sourcePoint" />
            <mxPoint x="370" y="580" as="targetPoint" />
          </mxGeometry>
        </mxCell>
        <mxCell id="DvSL-Q5EqcX3udWkkIbq-16" value="Embassy" style="swimlane;whiteSpace=wrap;html=1;" vertex="1" parent="1">
          <mxGeometry x="1280" y="40" width="360" height="1120" as="geometry" />
        </mxCell>
        <mxCell id="W3tod4uunTG3rIAU2jUC-87" value="Wait for Visa Processing" style="shape=delay;whiteSpace=wrap;html=1;" parent="DvSL-Q5EqcX3udWkkIbq-16" vertex="1">
          <mxGeometry x="27.5" y="679" width="135" height="70" as="geometry" />
        </mxCell>
        <mxCell id="DvSL-Q5EqcX3udWkkIbq-54" value="" style="edgeStyle=orthogonalEdgeStyle;rounded=0;orthogonalLoop=1;jettySize=auto;html=1;" edge="1" parent="DvSL-Q5EqcX3udWkkIbq-16" source="W3tod4uunTG3rIAU2jUC-89" target="DvSL-Q5EqcX3udWkkIbq-37">
          <mxGeometry relative="1" as="geometry" />
        </mxCell>
        <mxCell id="W3tod4uunTG3rIAU2jUC-89" value="Study Visa" style="shape=document;whiteSpace=wrap;html=1;boundedLbl=1;" parent="DvSL-Q5EqcX3udWkkIbq-16" vertex="1">
          <mxGeometry x="202.5" y="824" width="130" height="70" as="geometry" />
        </mxCell>
        <mxCell id="DvSL-Q5EqcX3udWkkIbq-37" value="Accept Study Visa?" style="rhombus;whiteSpace=wrap;html=1;" vertex="1" parent="DvSL-Q5EqcX3udWkkIbq-16">
          <mxGeometry x="207.5" y="654" width="120" height="120" as="geometry" />
        </mxCell>
        <mxCell id="DvSL-Q5EqcX3udWkkIbq-38" value="" style="endArrow=classic;html=1;rounded=0;exitX=1;exitY=0.5;exitDx=0;exitDy=0;entryX=0;entryY=0.5;entryDx=0;entryDy=0;" edge="1" parent="DvSL-Q5EqcX3udWkkIbq-16" source="W3tod4uunTG3rIAU2jUC-87" target="DvSL-Q5EqcX3udWkkIbq-37">
          <mxGeometry width="50" height="50" relative="1" as="geometry">
            <mxPoint x="-140" y="870" as="sourcePoint" />
            <mxPoint x="-90" y="820" as="targetPoint" />
          </mxGeometry>
        </mxCell>
        <mxCell id="DvSL-Q5EqcX3udWkkIbq-39" value="Yes" style="endArrow=classic;html=1;rounded=0;exitX=0.5;exitY=1;exitDx=0;exitDy=0;entryX=0.5;entryY=0;entryDx=0;entryDy=0;" edge="1" parent="DvSL-Q5EqcX3udWkkIbq-16" source="DvSL-Q5EqcX3udWkkIbq-37" target="W3tod4uunTG3rIAU2jUC-89">
          <mxGeometry width="50" height="50" relative="1" as="geometry">
            <mxPoint x="195" y="890" as="sourcePoint" />
            <mxPoint x="285" y="890" as="targetPoint" />
          </mxGeometry>
        </mxCell>
        <mxCell id="DvSL-Q5EqcX3udWkkIbq-30" value="" style="endArrow=classic;html=1;rounded=0;exitX=1;exitY=0.5;exitDx=0;exitDy=0;entryX=0;entryY=0.5;entryDx=0;entryDy=0;" edge="1" parent="1" source="W3tod4uunTG3rIAU2jUC-75" target="W3tod4uunTG3rIAU2jUC-77">
          <mxGeometry width="50" height="50" relative="1" as="geometry">
            <mxPoint x="730" y="720" as="sourcePoint" />
            <mxPoint x="780" y="670" as="targetPoint" />
          </mxGeometry>
        </mxCell>
        <mxCell id="DvSL-Q5EqcX3udWkkIbq-33" value="" style="endArrow=classic;html=1;rounded=0;exitX=0.5;exitY=0;exitDx=0;exitDy=0;entryX=1;entryY=0.5;entryDx=0;entryDy=0;" edge="1" parent="1" source="DvSL-Q5EqcX3udWkkIbq-29" target="W3tod4uunTG3rIAU2jUC-74">
          <mxGeometry width="50" height="50" relative="1" as="geometry">
            <mxPoint x="730" y="720" as="sourcePoint" />
            <mxPoint x="780" y="670" as="targetPoint" />
            <Array as="points">
              <mxPoint x="1000" y="370" />
            </Array>
          </mxGeometry>
        </mxCell>
        <mxCell id="DvSL-Q5EqcX3udWkkIbq-34" value="No" style="edgeLabel;html=1;align=center;verticalAlign=middle;resizable=0;points=[];" vertex="1" connectable="0" parent="DvSL-Q5EqcX3udWkkIbq-33">
          <mxGeometry x="-0.8295" y="-1" relative="1" as="geometry">
            <mxPoint x="-1" y="7" as="offset" />
          </mxGeometry>
        </mxCell>
        <mxCell id="DvSL-Q5EqcX3udWkkIbq-40" value="" style="endArrow=classic;html=1;rounded=0;exitX=0.5;exitY=0;exitDx=0;exitDy=0;entryX=1;entryY=0.5;entryDx=0;entryDy=0;" edge="1" parent="1" source="DvSL-Q5EqcX3udWkkIbq-37" target="W3tod4uunTG3rIAU2jUC-82">
          <mxGeometry width="50" height="50" relative="1" as="geometry">
            <mxPoint x="1020" y="880" as="sourcePoint" />
            <mxPoint x="1070" y="830" as="targetPoint" />
            <Array as="points">
              <mxPoint x="1550" y="634" />
            </Array>
          </mxGeometry>
        </mxCell>
        <mxCell id="DvSL-Q5EqcX3udWkkIbq-44" value="No" style="edgeLabel;html=1;align=center;verticalAlign=middle;resizable=0;points=[];" vertex="1" connectable="0" parent="DvSL-Q5EqcX3udWkkIbq-40">
          <mxGeometry x="-0.9356" y="-3" relative="1" as="geometry">
            <mxPoint x="-3" as="offset" />
          </mxGeometry>
        </mxCell>
        <mxCell id="DvSL-Q5EqcX3udWkkIbq-42" value="" style="endArrow=classic;html=1;rounded=0;exitX=0.51;exitY=0.848;exitDx=0;exitDy=0;exitPerimeter=0;entryX=0.5;entryY=0;entryDx=0;entryDy=0;" edge="1" parent="1" source="W3tod4uunTG3rIAU2jUC-80" target="W3tod4uunTG3rIAU2jUC-82">
          <mxGeometry width="50" height="50" relative="1" as="geometry">
            <mxPoint x="1020" y="640" as="sourcePoint" />
            <mxPoint x="1070" y="590" as="targetPoint" />
            <Array as="points">
              <mxPoint x="1186" y="570" />
              <mxPoint x="552" y="570" />
            </Array>
          </mxGeometry>
        </mxCell>
        <mxCell id="DvSL-Q5EqcX3udWkkIbq-45" value="" style="endArrow=classic;html=1;rounded=0;exitX=0;exitY=0.5;exitDx=0;exitDy=0;entryX=1;entryY=0.5;entryDx=0;entryDy=0;" edge="1" parent="1" source="W3tod4uunTG3rIAU2jUC-89" target="W3tod4uunTG3rIAU2jUC-91">
          <mxGeometry width="50" height="50" relative="1" as="geometry">
            <mxPoint x="990" y="890" as="sourcePoint" />
            <mxPoint x="1040" y="840" as="targetPoint" />
          </mxGeometry>
        </mxCell>
        <mxCell id="DvSL-Q5EqcX3udWkkIbq-55" value="CANADA STUDY VISA FOR INTERNATIONAL STUDENT" style="text;html=1;strokeColor=none;fillColor=none;align=center;verticalAlign=middle;whiteSpace=wrap;rounded=0;fontStyle=1;fontSize=25;" vertex="1" parent="1">
          <mxGeometry x="482" width="690" height="30" as="geometry" />
        </mxCell>
      </root>
    </mxGraphModel>
  </diagram>
</mxfile>
